<svg width="26" height="31" viewBox="0 0 26 31" fill="none" xmlns="http://www.w3.org/2000/svg">
<g clip-path="url(#clip0_1_101)">
<path d="M24.5742 2.73286C24.9648 2.73286 25.2996 2.87237 25.5786 3.15139C25.8576 3.4304 25.9972 3.76522 25.9972 4.15585V27.0242C25.9972 27.4148 25.8576 27.7496 25.5786 28.0286C25.2996 28.3076 24.9648 28.4471 24.5742 28.4471H18.0284V18.4862H21.3599L21.8621 14.6023H18.0284V12.1246C18.0284 11.4996 18.1595 11.0308 18.4218 10.7183C18.6841 10.4058 19.1947 10.2496 19.9536 10.2496L21.996 10.2329V6.76746C21.2929 6.66701 20.2996 6.61679 19.0161 6.61679C17.4983 6.61679 16.2845 7.06322 15.3749 7.95607C14.4653 8.84893 14.0105 10.1101 14.0105 11.7396V14.6023H10.6623V18.4862H14.0105V28.4471H1.70586C1.31523 28.4471 0.980412 28.3076 0.701394 28.0286C0.422376 27.7496 0.282867 27.4148 0.282867 27.0242V4.15585C0.282867 3.76522 0.422376 3.4304 0.701394 3.15139C0.980412 2.87237 1.31523 2.73286 1.70586 2.73286H24.5742Z" fill="black"/>
</g>
<defs>
<clipPath id="clip0_1_101">
<rect width="25.72" height="30" fill="white" transform="matrix(1 0 0 -1 0.279999 30.59)"/>
</clipPath>
</defs>
</svg>
