<svg width="14" height="17" viewBox="0 0 14 17" fill="none" xmlns="http://www.w3.org/2000/svg">
<g clip-path="url(#clip0_1_131)">
<path d="M8.00285 5.16724V9.16724C8.00285 9.25057 7.97607 9.31902 7.9225 9.37259C7.86893 9.42616 7.80047 9.45295 7.71714 9.45295H4.86C4.77666 9.45295 4.70821 9.42616 4.65464 9.37259C4.60107 9.31902 4.57428 9.25057 4.57428 9.16724V8.59581C4.57428 8.51247 4.60107 8.44402 4.65464 8.39045C4.70821 8.33688 4.77666 8.31009 4.86 8.31009H6.86V5.16724C6.86 5.0839 6.88678 5.01545 6.94035 4.96188C6.99393 4.90831 7.06238 4.88152 7.14571 4.88152H7.71714C7.80047 4.88152 7.86893 4.90831 7.9225 4.96188C7.97607 5.01545 8.00285 5.0839 8.00285 5.16724ZM11.0654 10.7476C11.0654 10.7476 11.174 10.5616 11.3912 10.1896C11.6085 9.81753 11.7171 9.19105 11.7171 8.31009C11.7171 7.42914 11.4999 6.61664 11.0654 5.87259C10.6308 5.12855 10.0415 4.53926 9.2975 4.10474C8.55345 3.67021 7.74095 3.45295 6.86 3.45295C5.97904 3.45295 5.16654 3.67021 4.4225 4.10474C3.67845 4.53926 3.08916 5.12855 2.65464 5.87259C2.22012 6.61664 2.00285 7.42914 2.00285 8.31009C2.00285 9.19105 2.22012 10.0035 2.65464 10.7476C3.08916 11.4916 3.67845 12.0809 4.4225 12.5155C5.16654 12.95 5.97904 13.1672 6.86 13.1672C7.74095 13.1672 8.55345 12.95 9.2975 12.5155C10.0415 12.0809 10.6308 11.4916 11.0654 10.7476ZM12.7975 4.86813C12.7975 4.86813 12.9508 5.13078 13.2573 5.65608C13.5639 6.18137 13.7171 7.06605 13.7171 8.31009C13.7171 9.55414 13.4106 10.7015 12.7975 11.7521C12.1844 12.8027 11.3526 13.6345 10.302 14.2476C9.25137 14.8607 8.10404 15.1672 6.86 15.1672C5.61595 15.1672 4.46863 14.8607 3.41803 14.2476C2.36744 13.6345 1.53559 12.8027 0.922496 11.7521C0.309401 10.7015 0.00285339 9.55414 0.00285339 8.31009C0.00285339 7.06605 0.309401 5.91872 0.922496 4.86813C1.53559 3.81753 2.36744 2.98569 3.41803 2.37259C4.46863 1.7595 5.61595 1.45295 6.86 1.45295C8.10404 1.45295 9.25137 1.7595 10.302 2.37259C11.3526 2.98569 12.1844 3.81753 12.7975 4.86813Z" fill="black"/>
</g>
<defs>
<clipPath id="clip0_1_131">
<rect width="13.72" height="16" fill="white" transform="matrix(1 0 0 -1 0 16.3101)"/>
</clipPath>
</defs>
</svg>
