<svg width="26" height="31" viewBox="0 0 26 31" fill="none" xmlns="http://www.w3.org/2000/svg">
<g clip-path="url(#clip0_1_103)">
<path d="M15.8064 21.4159V24.9482C15.8064 25.696 15.5888 26.0699 15.1535 26.0699C14.8968 26.0699 14.6457 25.9471 14.4002 25.7016V20.6625C14.6457 20.417 14.8968 20.2942 15.1535 20.2942C15.5888 20.2942 15.8064 20.6681 15.8064 21.4159ZM21.4649 21.4326V22.2027H19.9582V21.4326C19.9582 20.6737 20.2093 20.2942 20.7116 20.2942C21.2138 20.2942 21.4649 20.6737 21.4649 21.4326ZM5.29305 17.783H7.08434V16.2094H1.86113V17.783H3.61894V27.3087H5.29305V17.783ZM10.1145 27.3087H11.6044V19.0386H10.1145V25.3668C9.77965 25.8355 9.46157 26.0699 9.16023 26.0699C8.95934 26.0699 8.84215 25.9527 8.80867 25.7183C8.79751 25.6848 8.79193 25.4895 8.79193 25.1324V19.0386H7.30198V25.5844C7.30198 26.1313 7.34662 26.5386 7.4359 26.8065C7.56983 27.2194 7.89349 27.4259 8.40689 27.4259C8.9426 27.4259 9.5118 27.0855 10.1145 26.4047V27.3087ZM17.2964 24.831V21.533C17.2964 20.7183 17.2462 20.1659 17.1457 19.8757C16.956 19.2507 16.5598 18.9382 15.9571 18.9382C15.3991 18.9382 14.8801 19.2395 14.4002 19.8422V16.2094H12.9102V27.3087H14.4002V26.5051C14.9024 27.119 15.4214 27.4259 15.9571 27.4259C16.5598 27.4259 16.956 27.119 17.1457 26.5051C17.2462 26.2038 17.2964 25.6458 17.2964 24.831ZM22.9549 24.6636V24.446H21.4314C21.4314 25.0152 21.4203 25.3556 21.398 25.4672C21.3198 25.869 21.0966 26.0699 20.7283 26.0699C20.2149 26.0699 19.9582 25.6848 19.9582 24.9147V23.4583H22.9549V21.7339C22.9549 20.8522 22.8042 20.2049 22.5029 19.792C22.0676 19.2228 21.4761 18.9382 20.7283 18.9382C19.9694 18.9382 19.3723 19.2228 18.937 19.792C18.6245 20.2049 18.4683 20.8522 18.4683 21.7339V24.6301C18.4683 25.5118 18.6301 26.1592 18.9538 26.5721C19.389 27.1413 19.9917 27.4259 20.7618 27.4259C21.5654 27.4259 22.168 27.1301 22.5698 26.5386C22.7707 26.2373 22.8879 25.9359 22.9214 25.6346C22.9437 25.5342 22.9549 25.2105 22.9549 24.6636ZM12.7763 9.37903V5.8634C12.7763 5.09332 12.5364 4.70827 12.0564 4.70827C11.5765 4.70827 11.3366 5.09332 11.3366 5.8634V9.37903C11.3366 10.1603 11.5765 10.5509 12.0564 10.5509C12.5364 10.5509 12.7763 10.1603 12.7763 9.37903ZM24.8131 21.9516C24.8131 24.5632 24.668 26.5163 24.3779 27.8109C24.2216 28.4694 23.898 29.0219 23.4069 29.4683C22.9158 29.9147 22.3466 30.1714 21.6993 30.2384C19.6457 30.4728 16.5486 30.59 12.408 30.59C8.26738 30.59 5.17028 30.4728 3.11671 30.2384C2.46939 30.1714 1.8974 29.9147 1.40075 29.4683C0.904096 29.0219 0.583226 28.4694 0.438136 27.8109C0.147958 26.5609 0.00286865 24.6078 0.00286865 21.9516C0.00286865 19.34 0.147958 17.3868 0.438136 16.0922C0.594386 15.4337 0.918047 14.8813 1.40912 14.4348C1.90019 13.9884 2.47497 13.7261 3.13345 13.648C5.17586 13.4248 8.26738 13.3132 12.408 13.3132C16.5486 13.3132 19.6457 13.4248 21.6993 13.648C22.3466 13.7261 22.9186 13.9884 23.4153 14.4348C23.9119 14.8813 24.2328 15.4337 24.3779 16.0922C24.668 17.3422 24.8131 19.2953 24.8131 21.9516ZM8.10555 0.589966H9.81314L7.78747 7.26965V11.8065H6.11336V7.26965C5.95711 6.44376 5.61671 5.26073 5.09215 3.72055C4.67921 2.57099 4.31648 1.52747 4.00398 0.589966H5.77854L6.96715 4.99287L8.10555 0.589966ZM14.2997 6.16474V9.09443C14.2997 9.99845 14.1435 10.6569 13.831 11.0699C13.4069 11.6391 12.8154 11.9237 12.0564 11.9237C11.3087 11.9237 10.7227 11.6391 10.2986 11.0699C9.98613 10.6458 9.82988 9.98729 9.82988 9.09443V6.16474C9.82988 5.27189 9.98613 4.61898 10.2986 4.20604C10.7227 3.63684 11.3087 3.35224 12.0564 3.35224C12.8154 3.35224 13.4069 3.63684 13.831 4.20604C14.1435 4.61898 14.2997 5.27189 14.2997 6.16474ZM19.908 3.45269V11.8065H18.3846V10.8857C17.793 11.5777 17.2183 11.9237 16.6602 11.9237C16.1468 11.9237 15.8176 11.7172 15.6725 11.3043C15.5832 11.0364 15.5386 10.6179 15.5386 10.0487V3.45269H17.062V9.59666C17.062 9.96497 17.0676 10.1603 17.0788 10.1826C17.1122 10.4281 17.2294 10.5509 17.4303 10.5509C17.7317 10.5509 18.0497 10.3109 18.3846 9.83104V3.45269H19.908Z" fill="black"/>
</g>
<defs>
<clipPath id="clip0_1_103">
<rect width="25.72" height="30" fill="white" transform="matrix(1 0 0 -1 0 30.59)"/>
</clipPath>
</defs>
</svg>
